<svg width="228" height="258" viewBox="0 0 228 258" fill="none" xmlns="http://www.w3.org/2000/svg">
<path d="M33.7356 84.4233C45.6048 84.4233 55.2267 73.5354 55.2267 60.1044C55.2267 46.6735 45.6048 35.7856 33.7356 35.7856C21.8663 35.7856 12.2444 46.6735 12.2444 60.1044C12.2444 73.5354 21.8663 84.4233 33.7356 84.4233Z" stroke="#D3D3D3" stroke-miterlimit="10" stroke-dasharray="11.84 11.84"/>
<path d="M62.5733 47.7778C57.0844 50.5011 51.6378 53.7978 47.8167 58.9817C43.9956 64.1656 42.0533 71.6428 44.3544 77.9017C47.4367 86.2389 57.1689 91.1122 57.2111 100.142C57.2533 106.616 51.9544 111.561 46.6344 113.926C41.2933 116.291 35.4033 117.127 30.5478 120.567C23.2222 125.751 19.8022 135.808 18.3878 145.459C16.9311 155.469 17.5222 166.864 23.7922 174.126C31.5822 183.156 44.4389 182.129 55.4589 180.218C70.1522 177.638 84.8033 174.628 99.4333 171.618C131.501 165.001 163.59 158.383 195.658 151.766C199.099 151.049 202.667 150.285 205.474 147.896C211.027 143.166 211.491 133.419 208.261 126.468C205.031 119.516 199.078 114.786 193.146 110.701C187.213 106.616 180.964 102.746 176.51 96.7022C172.077 90.6583 169.86 81.7239 173.217 74.8439C176.067 69.015 182.168 65.9094 184.849 59.9611C188.353 52.1494 184.321 42.1639 177.946 37.1711C171.57 32.2022 91.5378 33.4683 62.5733 47.7778Z" fill="#F7F7F7"/>
<path d="M175.053 54.2278V146.057C175.053 147.394 174.167 148.493 173.09 148.493H25.5867C24.51 148.493 23.6233 147.394 23.6233 146.057V54.2278C23.6233 52.89 24.51 51.7911 25.5867 51.7911H173.111C174.188 51.7911 175.053 52.89 175.053 54.2278Z" fill="#E9F7FF"/>
<path d="M53.2844 95.3644H32.0678C30.6744 95.3644 29.5344 94.0744 29.5344 92.4978V68.4894C29.5344 66.9128 30.6744 65.6228 32.0678 65.6228H53.2844C54.6778 65.6228 55.8178 66.9128 55.8178 68.4894V92.4978C55.8178 94.0744 54.6778 95.3644 53.2844 95.3644Z" fill="#F8FDFF"/>
<path d="M175.053 53.4156V60.1045H23.6444V53.4156C23.6444 52.5317 24.5311 51.815 25.6078 51.815H173.111C174.188 51.7912 175.053 52.5317 175.053 53.4156Z" fill="#FF5555"/>
<path d="M74.3322 105.995H30.9067C30.1467 105.995 29.5344 105.302 29.5344 104.442C29.5344 103.582 30.1467 102.889 30.9067 102.889H74.3322C75.0922 102.889 75.7044 103.582 75.7044 104.442C75.7044 105.302 75.0922 105.995 74.3322 105.995Z" fill="#F8FDFF"/>
<path d="M74.3322 112.732H30.9067C30.1467 112.732 29.5344 112.039 29.5344 111.179C29.5344 110.319 30.1467 109.626 30.9067 109.626H74.3322C75.0922 109.626 75.7044 110.319 75.7044 111.179C75.7044 112.039 75.0922 112.732 74.3322 112.732Z" fill="#F8FDFF"/>
<path d="M74.3322 119.229H30.9067C30.1467 119.229 29.5344 118.537 29.5344 117.677C29.5344 116.817 30.1467 116.124 30.9067 116.124H74.3322C75.0922 116.124 75.7044 116.817 75.7044 117.677C75.7044 118.513 75.0922 119.229 74.3322 119.229Z" fill="#F8FDFF"/>
<path d="M203.173 221.784H11.8011C10.4711 221.784 9.39445 220.566 9.39445 219.061V205.492C9.39445 203.987 10.4711 202.769 11.8011 202.769H203.173C204.503 202.769 205.58 203.987 205.58 205.492V219.061C205.58 220.566 204.503 221.784 203.173 221.784Z" fill="#F2F2F2"/>
<path d="M63.6922 214.976C63.7344 215.406 63.6289 215.908 63.2911 216.171C59.7867 213.137 56.2822 209.721 53.5167 205.851C53.3478 205.612 53.1789 205.349 53.2 205.038C53.2211 204.799 53.3267 204.608 53.4533 204.417C54.2344 203.247 55.0156 202.076 55.7967 200.906C56.1133 201.168 56.43 201.407 56.7467 201.67C57.8022 202.506 58.8789 203.366 59.9978 204.083C59.9556 204.202 59.9556 204.298 59.9344 204.417C59.7656 205.373 60.5044 206.949 60.8211 207.786C61.56 209.792 62.3622 211.775 63.27 213.71C63.4389 214.116 63.6289 214.522 63.6922 214.976Z" fill="#FF5555"/>
<path d="M53.8756 123.625C59.6811 141.709 68.7589 170.853 68.7589 172.573C68.7589 174.293 63.5867 200.786 65.9933 204.226C60.1667 206.137 45.1778 205.564 45.1778 205.564C48.2178 203.844 55.6278 174.102 55.2056 169.922C54.7833 165.717 43.9111 155.063 48.3233 141.136C52.7567 127.208 53.8756 123.625 53.8756 123.625Z" fill="#0A3E5B"/>
<path d="M52.5456 214.785C52.82 215.096 52.9889 215.597 52.8622 216.003C50.2444 215.956 47.6056 215.812 45.0089 215.454C43.7422 215.263 42.4756 215.024 41.2089 214.737C40.1322 214.498 39.6678 214.451 39.6256 213.017C39.6044 212.157 39.4356 209.291 40.0689 208.789C40.4067 208.526 41.5045 208.741 41.9267 208.717C42.5811 208.669 43.2144 208.622 43.8689 208.526C43.9111 208.646 43.9533 208.741 43.9956 208.837C44.3544 209.721 45.7689 210.485 46.4867 210.963C48.1333 212.086 49.8222 213.137 51.5744 214.068C51.9122 214.283 52.2711 214.474 52.5456 214.785Z" fill="#FF5555"/>
<path d="M68.0622 108.766C68.8011 107.93 70.4478 104.992 70.3211 104.012C69.4133 103.917 66.5844 107.285 66.5844 107.93L65.9933 109.244L67.07 109.363L68.0622 108.766Z" fill="#FFD4B0"/>
<path d="M46.8667 95.6033C48.5133 97.1322 51.7433 133.873 66.2889 107.787C68.2944 108.575 68.02 108.718 68.02 108.718C68.02 108.718 59.3856 132.559 45.3256 112.803C35.2133 97.2994 46.8667 95.6033 46.8667 95.6033Z" fill="#FF5555"/>
<path d="M65.6767 113.52L64.9167 111.155C64.8533 110.988 64.8744 110.797 64.9589 110.653L69.6667 101.074C69.7511 100.907 69.92 100.787 70.0889 100.763L72.0944 100.644C72.5167 100.62 72.7911 101.122 72.58 101.528L66.6478 113.616C66.4156 114.069 65.8244 113.998 65.6767 113.52Z" fill="#0E538C"/>
<path d="M65.8667 112.684L65.2967 111.036C65.2544 110.916 65.2544 110.773 65.3178 110.653L69.7722 101.576C69.8567 101.432 69.9833 101.337 70.1522 101.337L71.4822 101.361C71.7989 101.361 71.9889 101.743 71.8411 102.077L66.5844 112.779C66.4156 113.066 65.9722 113.042 65.8667 112.684Z" fill="#E9F9FF"/>
<path d="M55.9444 112.564C55.29 114.404 53.9389 119.803 53.8544 123.625V123.649L51.0889 124.342C48.9778 126.683 44.3544 132.058 41.8 124.724C41.8422 123.959 41.8633 123.267 41.8844 122.598C42.18 112.349 40.8711 111.991 40.6389 107.572C40.3856 102.866 39.7311 97.6817 47.88 95.4361C50.1389 98.255 51.7856 97.3711 51.7856 97.3711C52.9256 98.2311 53.5378 102.125 54.4878 105.326C55.3744 108.241 56.7044 110.438 55.9444 112.564Z" fill="#FF5555"/>
<path d="M51.9544 94.7672L51.4056 97.61L50.3289 99.0433L48.5344 96.2006L50.6456 92.4978L51.9544 94.7672Z" fill="#FCD2B1"/>
<path d="M48.83 91.4228C48.7244 88.6755 50.6033 83.1094 53.1789 82.99C55.7544 82.8705 57.9289 84.9728 58.0344 87.72C58.14 90.4672 56.1344 92.7844 53.5589 92.9278C50.9833 93.0472 48.9356 94.17 48.83 91.4228Z" fill="#0E538C"/>
<path d="M56.6833 92.3783C55.86 94.1222 53.39 96.2005 51.6167 95.1255C50.16 94.2417 50.5611 90.9689 51.3844 89.225C52.2078 87.4811 54.0444 86.7644 55.5222 87.6483C56.9789 88.4844 57.5067 90.6105 56.6833 92.3783Z" fill="#FFE3CA"/>
<path d="M53.5589 87.8633C54.1711 87.8872 54.5933 88.58 54.8467 89.225C55.1 89.87 55.3322 90.5867 55.8811 90.9211C56.3244 91.1839 56.8733 91.1122 57.3378 91.3272C57.76 91.5183 58.0767 91.9245 58.4356 92.2589C58.7944 92.5933 59.2589 92.88 59.7022 92.7367C60.04 92.6411 60.2933 92.3067 60.42 91.9483C60.5678 91.59 60.5889 91.1839 60.6311 90.8017C60.6944 90.2283 60.7367 89.5833 60.4622 89.0817C60.1878 88.58 59.6811 88.3411 59.2167 88.15C58.4144 87.7917 57.6122 87.4572 56.81 87.0989C56.2611 86.86 55.6911 86.5972 55.1 86.5733C54.4878 86.5256 53.8756 86.7167 53.3267 86.9795C52.8622 87.1945 52.3767 87.5289 52.1656 88.0545C51.9544 88.5561 51.87 89.5356 52.3556 89.6311C52.8411 89.7028 53.5589 87.8633 53.5589 87.8633Z" fill="#0E538C"/>
<path d="M52.1867 88.0067C51.9756 88.5083 51.8911 89.7506 52.3767 89.5833C52.6722 89.4878 53.5589 87.8394 53.5589 87.8394" fill="#0E538C"/>
<path d="M53.39 88.2217C52.4822 89.8939 51.7856 91.3033 50.9411 90.4194C50.92 89.01 51.4056 87.4333 51.4056 87.4333L52.4822 87.2422H53.2L53.39 88.2217Z" fill="#0E538C"/>
<path d="M51.9544 85.4267C53.6334 85.4267 54.9944 83.8865 54.9944 81.9867C54.9944 80.0868 53.6334 78.5467 51.9544 78.5467C50.2755 78.5467 48.9144 80.0868 48.9144 81.9867C48.9144 83.8865 50.2755 85.4267 51.9544 85.4267Z" fill="#0E538C"/>
<path d="M52.0892 90.258C52.2834 89.5665 52.1346 88.8958 51.7568 88.7599C51.379 88.624 50.9153 89.0745 50.7211 89.766C50.5268 90.4575 50.6756 91.1283 51.0534 91.2642C51.4312 91.4 51.8949 90.9496 52.0892 90.258Z" fill="#FFE3CA"/>
<path d="M68.6533 110.08C69.3922 109.244 71.0389 106.306 70.9122 105.326C70.0044 105.231 68.2522 107.261 68.2522 107.261C68.2522 107.261 67.9144 107.309 68.1467 106.497C68.1678 105.852 67.7456 106.067 67.2811 107.691C67.1756 108.073 67.1967 108.599 67.1756 109.22L66.5844 110.534L67.6611 110.653L68.6533 110.08Z" fill="#FFE3CA"/>
<path d="M47.4789 96.9172C49.1256 98.4461 52.3556 135.187 66.9011 109.101C68.9067 109.889 68.6322 110.032 68.6322 110.032C68.6322 110.032 59.9978 133.873 45.9378 114.117C35.8045 98.6133 47.4789 96.9172 47.4789 96.9172Z" fill="#FF5555"/>
<path d="M52.2289 100.262L46.5289 97.4906C45.8744 97.18 45.5789 96.32 45.8533 95.5794L46.0011 95.1972C46.2756 94.4567 47.0356 94.1222 47.69 94.4328L53.39 97.2039C54.0444 97.5144 54.34 98.3744 54.0656 99.115L53.9178 99.4972C53.6222 100.238 52.8833 100.596 52.2289 100.262Z" fill="#FF5555"/>
<path d="M53.8756 123.625L53.77 128.474L51.87 208.024C51.87 208.024 40.28 211.966 31.4978 208.024C36.67 202.506 41.3989 129.932 41.8844 122.574C41.9056 122.192 41.9267 121.977 41.9267 121.977L53.8756 123.625Z" fill="#0B4870"/>
<path d="M200.007 86.5256H109.398C107.477 86.5256 105.893 84.7339 105.893 82.56C105.893 80.3861 107.477 78.5945 109.398 78.5945H199.986C201.907 78.5945 203.49 80.3861 203.49 82.56C203.49 84.7339 201.928 86.5256 200.007 86.5256Z" fill="#FF5555"/>
<path d="M201.316 88.6517H110.728C108.68 88.6517 107.012 86.7645 107.012 84.4472C107.012 82.13 108.68 80.2428 110.728 80.2428H201.316C203.363 80.2428 205.031 82.13 205.031 84.4472C205.031 86.7645 203.363 88.6517 201.316 88.6517ZM110.728 80.7206C108.912 80.7206 107.434 82.3928 107.434 84.4472C107.434 86.5017 108.912 88.1739 110.728 88.1739H201.316C203.131 88.1739 204.609 86.5017 204.609 84.4472C204.609 82.3928 203.131 80.7206 201.316 80.7206H110.728Z" fill="#FF5555"/>
<path d="M91.5378 90.3C95.8517 90.3 99.3489 86.3427 99.3489 81.4611C99.3489 76.5795 95.8517 72.6222 91.5378 72.6222C87.2238 72.6222 83.7267 76.5795 83.7267 81.4611C83.7267 86.3427 87.2238 90.3 91.5378 90.3Z" stroke="#B0E1FF" stroke-width="10" stroke-miterlimit="10"/>
<path d="M85.4789 89.4161L81.13 82.7033C80.75 82.1061 80.8555 81.2939 81.3833 80.8639C81.9111 80.4339 82.6289 80.5533 83.0089 81.1506L85.9222 85.6656L100.278 72.67C100.784 72.2161 101.502 72.3117 101.903 72.885C102.304 73.4583 102.22 74.2705 101.713 74.7244L85.4789 89.4161Z" fill="#FF5555"/>
<path d="M91.5378 115.813C95.8517 115.813 99.3489 111.856 99.3489 106.974C99.3489 102.093 95.8517 98.1355 91.5378 98.1355C87.2238 98.1355 83.7267 102.093 83.7267 106.974C83.7267 111.856 87.2238 115.813 91.5378 115.813Z" stroke="#B0E1FF" stroke-width="10" stroke-miterlimit="10"/>
<path d="M85.4789 114.906L81.13 108.193C80.75 107.596 80.8555 106.783 81.3833 106.353C81.9111 105.923 82.6289 106.043 83.0089 106.64L85.9222 111.155L100.278 98.1594C100.784 97.7055 101.502 97.8011 101.903 98.3744C102.304 98.9478 102.22 99.76 101.713 100.214L85.4789 114.906Z" fill="#FF5555"/>
<path d="M91.5378 141.327C95.8517 141.327 99.3489 137.369 99.3489 132.488C99.3489 127.606 95.8517 123.649 91.5378 123.649C87.2238 123.649 83.7267 127.606 83.7267 132.488C83.7267 137.369 87.2238 141.327 91.5378 141.327Z" stroke="#B0E1FF" stroke-width="10" stroke-miterlimit="10"/>
<path d="M187.424 190.729C185.609 181.173 180.036 172.597 172.478 167.819C176.51 176.443 181.344 184.589 186.876 192.091L187.424 190.729Z" fill="#1A87D8"/>
<path d="M189.451 194.336C182.273 182.965 178.663 168.751 179.423 154.8C184.089 167.676 187.593 181.078 189.916 194.766L189.451 194.336Z" fill="#2A94F4"/>
<path d="M187.403 194.718C187.192 187.719 186.96 180.672 187.931 173.768C188.902 166.864 191.14 160.008 195.299 154.824C195.932 169.157 192.871 183.658 186.58 196.104L187.403 194.718Z" fill="#1A87D8"/>
<path d="M187.699 195.339C183.646 182.105 184.321 167.127 189.514 154.418C192.744 167.7 189.873 181.794 187.002 195.172L187.699 195.339Z" fill="#B0E1FF"/>
<path d="M188.227 190.442C189.346 178.832 196.186 168.154 205.58 163.352C201.759 174.938 195.257 185.354 186.876 193.285L188.227 190.442Z" fill="#2A94F4"/>
<path d="M197.917 188.412L196.756 210.939C196.756 212.014 195.974 212.922 195.003 212.922H181.197C180.247 212.922 179.444 212.038 179.444 210.939L179.191 205.851L178.283 188.412C178.283 187.337 179.064 186.429 180.036 186.429H196.164C196.798 186.429 197.347 186.811 197.663 187.384C197.811 187.695 197.917 188.053 197.917 188.412Z" fill="#CCE9FF"/>
<path d="M197.917 188.412L196.756 210.939C196.756 212.014 195.974 212.922 195.003 212.922H181.197C180.247 212.922 179.444 212.038 179.444 210.939L179.191 205.851C185.63 203.772 192.28 194.742 197.663 187.384C197.811 187.695 197.917 188.053 197.917 188.412Z" fill="#CCE9FF"/>
<path d="M200.556 110.797H109.968C108.047 110.797 106.463 109.005 106.463 106.831C106.463 104.657 108.047 102.866 109.968 102.866H200.556C202.477 102.866 204.06 104.657 204.06 106.831C204.06 109.029 202.477 110.797 200.556 110.797Z" fill="#FF5555"/>
<path d="M201.864 112.947H111.277C109.229 112.947 107.561 111.059 107.561 108.742C107.561 106.425 109.229 104.538 111.277 104.538H201.864C203.912 104.538 205.58 106.425 205.58 108.742C205.58 111.059 203.912 112.947 201.864 112.947ZM111.277 105.016C109.461 105.016 107.983 106.688 107.983 108.742C107.983 110.797 109.461 112.469 111.277 112.469H201.864C203.68 112.469 205.158 110.797 205.158 108.742C205.158 106.688 203.68 105.016 201.864 105.016H111.277Z" fill="#FF5555"/>
<path d="M200.556 136.573H109.968C108.047 136.573 106.463 134.781 106.463 132.607C106.463 130.433 108.047 128.642 109.968 128.642H200.556C202.477 128.642 204.06 130.433 204.06 132.607C204.06 134.781 202.477 136.573 200.556 136.573Z" fill="#FF5555"/>
<path d="M201.864 138.699H111.277C109.229 138.699 107.561 136.812 107.561 134.494C107.561 132.177 109.229 130.29 111.277 130.29H201.864C203.912 130.29 205.58 132.177 205.58 134.494C205.58 136.812 203.912 138.699 201.864 138.699ZM111.277 130.792C109.461 130.792 107.983 132.464 107.983 134.518C107.983 136.573 109.461 138.245 111.277 138.245H201.864C203.68 138.245 205.158 136.573 205.158 134.518C205.158 132.464 203.68 130.792 201.864 130.792H111.277Z" fill="#FF5555"/>
</svg>
